<svg width="159" height="64" viewBox="0 0 159 64" fill="none" xmlns="http://www.w3.org/2000/svg">
<path d="M64.072 32.88C64.072 32.64 64.152 32.44 64.312 32.28C64.472 32.12 64.672 32.04 64.912 32.04H65.872C66.608 30.44 67.128 28.656 67.432 26.688C67.752 24.704 67.912 22.488 67.912 20.04C67.912 19.224 67.8 18.624 67.576 18.24C67.352 17.84 66.904 17.64 66.232 17.64H65.872V17.16H77.872V32.04H79.192C79.432 32.04 79.632 32.12 79.792 32.28C79.952 32.44 80.032 32.64 80.032 32.88V37.32H78.952C78.76 35.72 78.432 34.6 77.968 33.96C77.504 33.32 76.832 33 75.952 33H68.152C67.272 33 66.6 33.32 66.136 33.96C65.672 34.6 65.344 35.72 65.152 37.32H64.072V32.88ZM75.712 32.04V18.12H69.472C69.472 21.432 69.32 24.176 69.016 26.352C68.728 28.528 68.24 30.424 67.552 32.04H75.712ZM86.5788 33.24C85.4908 33.24 84.5468 32.984 83.7467 32.472C82.9468 31.944 82.3388 31.232 81.9228 30.336C81.5068 29.44 81.2988 28.448 81.2988 27.36C81.2988 26.272 81.5068 25.28 81.9228 24.384C82.3388 23.488 82.9468 22.784 83.7467 22.272C84.5468 21.744 85.4908 21.48 86.5788 21.48C87.6668 21.48 88.6108 21.744 89.4108 22.272C90.2108 22.784 90.8188 23.488 91.2348 24.384C91.6508 25.28 91.8588 26.272 91.8588 27.36C91.8588 28.448 91.6508 29.44 91.2348 30.336C90.8188 31.232 90.2108 31.944 89.4108 32.472C88.6108 32.984 87.6668 33.24 86.5788 33.24ZM86.5788 32.28C87.1708 32.28 87.6908 32.064 88.1388 31.632C88.6028 31.2 88.9548 30.608 89.1948 29.856C89.4508 29.104 89.5788 28.272 89.5788 27.36C89.5788 26.448 89.4508 25.616 89.1948 24.864C88.9548 24.112 88.6028 23.52 88.1388 23.088C87.6908 22.656 87.1708 22.44 86.5788 22.44C85.9868 22.44 85.4588 22.656 84.9948 23.088C84.5468 23.52 84.1948 24.112 83.9388 24.864C83.6988 25.616 83.5788 26.448 83.5788 27.36C83.5788 28.272 83.6988 29.104 83.9388 29.856C84.1948 30.608 84.5468 31.2 84.9948 31.632C85.4588 32.064 85.9868 32.28 86.5788 32.28ZM94.9133 24.6C94.9133 23.784 94.8013 23.184 94.5773 22.8C94.3533 22.4 93.9053 22.2 93.2333 22.2H92.9933V21.72H98.8733C100.217 21.72 101.313 21.944 102.161 22.392C103.009 22.84 103.433 23.576 103.433 24.6C103.433 25.288 103.241 25.84 102.857 26.256C102.473 26.656 101.865 26.944 101.033 27.12C101.961 27.296 102.673 27.624 103.169 28.104C103.665 28.568 103.913 29.16 103.913 29.88C103.913 31.016 103.465 31.824 102.569 32.304C101.689 32.768 100.457 33 98.8733 33H94.9133V24.6ZM98.3933 26.64C99.2573 26.64 99.9293 26.464 100.409 26.112C100.905 25.76 101.153 25.256 101.153 24.6C101.153 23.944 100.921 23.44 100.457 23.088C99.9933 22.736 99.3853 22.56 98.6333 22.56C98.3933 22.56 98.1213 22.584 97.8173 22.632C97.5133 22.68 97.2653 22.736 97.0733 22.8V26.64H98.3933ZM98.6333 32.16C100.633 32.16 101.633 31.4 101.633 29.88C101.633 28.36 100.553 27.6 98.3933 27.6H97.0733V31.92C97.2653 31.984 97.5133 32.04 97.8173 32.088C98.1213 32.136 98.3933 32.16 98.6333 32.16ZM111.089 33.24C110.001 33.24 109.081 32.984 108.329 32.472C107.577 31.944 107.009 31.24 106.625 30.36C106.241 29.464 106.049 28.464 106.049 27.36C106.049 26.272 106.241 25.28 106.625 24.384C107.009 23.488 107.561 22.784 108.281 22.272C109.017 21.744 109.873 21.48 110.849 21.48C112.465 21.48 113.665 21.936 114.449 22.848C115.249 23.744 115.649 25.048 115.649 26.76L115.601 27.72H108.329C108.329 29.064 108.617 30.16 109.193 31.008C109.769 31.856 110.561 32.28 111.569 32.28C112.321 32.28 112.953 32.12 113.465 31.8C113.993 31.48 114.481 31 114.929 30.36L115.409 30.72C114.881 31.6 114.265 32.24 113.561 32.64C112.857 33.04 112.033 33.24 111.089 33.24ZM113.369 26.76C113.369 25.352 113.161 24.28 112.745 23.544C112.329 22.808 111.697 22.44 110.849 22.44C110.369 22.44 109.937 22.632 109.553 23.016C109.169 23.384 108.865 23.896 108.641 24.552C108.433 25.208 108.329 25.944 108.329 26.76H113.369ZM118.776 24.6C118.776 23.784 118.664 23.184 118.44 22.8C118.216 22.4 117.768 22.2 117.096 22.2H116.615V21.72H118.776C119.384 21.72 119.84 21.808 120.144 21.984C120.464 22.144 120.688 22.416 120.816 22.8H120.936C121.224 22.432 121.632 22.12 122.16 21.864C122.688 21.608 123.36 21.48 124.176 21.48C125.552 21.48 126.616 22.04 127.368 23.16C128.12 24.264 128.496 25.664 128.496 27.36C128.496 29.072 128.104 30.48 127.32 31.584C126.552 32.688 125.424 33.24 123.936 33.24C123.328 33.24 122.792 33.176 122.328 33.048C121.864 32.92 121.4 32.744 120.936 32.52V37.56H118.776V24.6ZM123.216 32.28C124.24 32.28 124.992 31.832 125.472 30.936C125.968 30.04 126.216 28.848 126.216 27.36C126.216 25.888 125.984 24.704 125.52 23.808C125.056 22.896 124.368 22.44 123.456 22.44C122.384 22.44 121.544 22.92 120.936 23.88V31.56C121.416 31.784 121.832 31.96 122.184 32.088C122.536 32.216 122.88 32.28 123.216 32.28ZM131.666 24.6C131.666 23.784 131.554 23.184 131.33 22.8C131.106 22.4 130.658 22.2 129.986 22.2H129.626V21.72H131.666C132.258 21.72 132.698 21.8 132.986 21.96C133.29 22.104 133.506 22.376 133.634 22.776C133.762 23.176 133.826 23.784 133.826 24.6V30.84L138.866 21.72H141.026V33H138.866V23.88L133.826 33H131.666V24.6ZM148.87 33.24C147.782 33.24 146.862 32.984 146.11 32.472C145.358 31.944 144.79 31.24 144.406 30.36C144.022 29.464 143.83 28.464 143.83 27.36C143.83 26.272 144.022 25.28 144.406 24.384C144.79 23.488 145.342 22.784 146.062 22.272C146.798 21.744 147.654 21.48 148.63 21.48C150.246 21.48 151.446 21.936 152.23 22.848C153.03 23.744 153.43 25.048 153.43 26.76L153.382 27.72H146.11C146.11 29.064 146.398 30.16 146.974 31.008C147.55 31.856 148.342 32.28 149.35 32.28C150.102 32.28 150.734 32.12 151.246 31.8C151.774 31.48 152.262 31 152.71 30.36L153.19 30.72C152.662 31.6 152.046 32.24 151.342 32.64C150.638 33.04 149.814 33.24 148.87 33.24ZM151.15 26.76C151.15 25.352 150.942 24.28 150.526 23.544C150.11 22.808 149.478 22.44 148.63 22.44C148.15 22.44 147.718 22.632 147.334 23.016C146.95 23.384 146.646 23.896 146.422 24.552C146.214 25.208 146.11 25.944 146.11 26.76H151.15Z" fill="#414141"/>
<path d="M18.085 60L16.967 57.127H13.288L12.183 60H11L14.627 50.679H15.68L19.294 60H18.085ZM15.576 53.279C15.55 53.2097 15.5067 53.084 15.446 52.902C15.3853 52.72 15.3247 52.5337 15.264 52.343C15.212 52.1437 15.1687 51.992 15.134 51.888C15.0733 52.1567 15.004 52.421 14.926 52.681C14.848 52.9323 14.783 53.1317 14.731 53.279L13.678 56.087H16.616L15.576 53.279ZM20.6157 53.032H21.8377L23.3457 56.997C23.4757 57.3437 23.5927 57.6773 23.6967 57.998C23.8007 58.31 23.8787 58.609 23.9307 58.895H23.9827C24.0347 58.6783 24.1171 58.3967 24.2297 58.05C24.3424 57.6947 24.4594 57.3393 24.5807 56.984L25.9977 53.032H27.2327L24.2297 60.962C23.9871 61.6207 23.6707 62.145 23.2807 62.535C22.8994 62.925 22.3707 63.12 21.6947 63.12C21.4867 63.12 21.3047 63.107 21.1487 63.081C20.9927 63.0637 20.8584 63.042 20.7457 63.016V62.106C20.8411 62.1233 20.9537 62.1407 21.0837 62.158C21.2224 62.1753 21.3654 62.184 21.5127 62.184C21.9114 62.184 22.2321 62.0713 22.4747 61.846C22.7261 61.6207 22.9211 61.3217 23.0597 60.949L23.4237 60.026L20.6157 53.032ZM34.5548 53.032V59.038H35.5688V62.418H34.4638V60H29.6148V62.418H28.5228V59.038H29.0818C29.6798 58.2147 30.1261 57.2787 30.4208 56.23C30.7241 55.1727 30.8801 54.1067 30.8888 53.032H34.5548ZM31.9028 53.929C31.8681 54.5183 31.7771 55.1293 31.6298 55.762C31.4824 56.386 31.2918 56.984 31.0578 57.556C30.8324 58.128 30.5681 58.622 30.2648 59.038H33.4498V53.929H31.9028ZM39.3135 57.283C39.3135 57.387 39.3092 57.543 39.3005 57.751C39.2918 57.959 39.2788 58.167 39.2615 58.375C39.2528 58.583 39.2442 58.7477 39.2355 58.869L42.9665 53.032H44.3705V60H43.3045V55.892C43.3045 55.7533 43.3045 55.5713 43.3045 55.346C43.3132 55.1207 43.3218 54.8997 43.3305 54.683C43.3392 54.4577 43.3478 54.2887 43.3565 54.176L39.6515 60H38.2345V53.032H39.3135V57.283ZM52.698 53.994H50.423V60H49.292V53.994H47.043V53.032H52.698V53.994ZM61.3017 56.503C61.3017 57.6557 61.007 58.5483 60.4177 59.181C59.837 59.8137 59.0483 60.13 58.0517 60.13C57.4363 60.13 56.886 59.9913 56.4007 59.714C55.924 59.428 55.547 59.0163 55.2697 58.479C54.9923 57.933 54.8537 57.2743 54.8537 56.503C54.8537 55.3503 55.144 54.462 55.7247 53.838C56.3053 53.214 57.094 52.902 58.0907 52.902C58.7233 52.902 59.278 53.045 59.7547 53.331C60.24 53.6083 60.617 54.0157 60.8857 54.553C61.163 55.0817 61.3017 55.7317 61.3017 56.503ZM56.0367 56.503C56.0367 57.3263 56.197 57.9807 56.5177 58.466C56.847 58.9427 57.367 59.181 58.0777 59.181C58.7797 59.181 59.2953 58.9427 59.6247 58.466C59.954 57.9807 60.1187 57.3263 60.1187 56.503C60.1187 55.6797 59.954 55.034 59.6247 54.566C59.2953 54.098 58.7753 53.864 58.0647 53.864C57.354 53.864 56.8383 54.098 56.5177 54.566C56.197 55.034 56.0367 55.6797 56.0367 56.503ZM67.7298 52.902C68.5878 52.902 69.2768 53.201 69.7968 53.799C70.3254 54.397 70.5898 55.2983 70.5898 56.503C70.5898 57.6903 70.3254 58.5917 69.7968 59.207C69.2768 59.8223 68.5834 60.13 67.7168 60.13C67.1794 60.13 66.7331 60.0303 66.3778 59.831C66.0311 59.623 65.7581 59.3847 65.5588 59.116H65.4808C65.4981 59.2633 65.5154 59.4497 65.5328 59.675C65.5501 59.9003 65.5588 60.0953 65.5588 60.26V63.12H64.4148V53.032H65.3508L65.5068 53.981H65.5588C65.7668 53.6777 66.0398 53.422 66.3778 53.214C66.7158 53.006 67.1664 52.902 67.7298 52.902ZM67.5218 53.864C66.8111 53.864 66.3084 54.0633 66.0138 54.462C65.7278 54.8607 65.5761 55.4673 65.5588 56.282V56.503C65.5588 57.361 65.6974 58.024 65.9748 58.492C66.2608 58.9513 66.7851 59.181 67.5478 59.181C67.9724 59.181 68.3191 59.064 68.5878 58.83C68.8651 58.596 69.0688 58.2797 69.1988 57.881C69.3374 57.4737 69.4068 57.01 69.4068 56.49C69.4068 55.6927 69.2508 55.0557 68.9388 54.579C68.6354 54.1023 68.1631 53.864 67.5218 53.864ZM76.5078 60.13C75.8925 60.13 75.3421 60.0043 74.8568 59.753C74.3801 59.5017 74.0031 59.1117 73.7258 58.583C73.4571 58.0543 73.3228 57.3783 73.3228 56.555C73.3228 55.697 73.4658 54.9993 73.7518 54.462C74.0378 53.9247 74.4235 53.5303 74.9088 53.279C75.4028 53.0277 75.9618 52.902 76.5858 52.902C76.9411 52.902 77.2835 52.941 77.6128 53.019C77.9421 53.0883 78.2108 53.175 78.4188 53.279L78.0678 54.228C77.8598 54.15 77.6171 54.0763 77.3398 54.007C77.0625 53.9377 76.8025 53.903 76.5598 53.903C75.1905 53.903 74.5058 54.7827 74.5058 56.542C74.5058 57.3827 74.6705 58.0283 74.9998 58.479C75.3378 58.921 75.8361 59.142 76.4948 59.142C76.8761 59.142 77.2098 59.103 77.4958 59.025C77.7905 58.947 78.0591 58.8517 78.3018 58.739V59.753C78.0678 59.8743 77.8078 59.9653 77.5218 60.026C77.2445 60.0953 76.9065 60.13 76.5078 60.13ZM85.3799 53.032H86.6279L83.6509 56.386L86.8749 60H85.5489L82.4029 56.464V60H81.2589V53.032H82.4029V56.412L85.3799 53.032ZM90.5188 57.283C90.5188 57.387 90.5144 57.543 90.5058 57.751C90.4971 57.959 90.4841 58.167 90.4668 58.375C90.4581 58.583 90.4494 58.7477 90.4408 58.869L94.1718 53.032H95.5758V60H94.5098V55.892C94.5098 55.7533 94.5098 55.5713 94.5098 55.346C94.5184 55.1207 94.5271 54.8997 94.5358 54.683C94.5444 54.4577 94.5531 54.2887 94.5618 54.176L90.8568 60H89.4398V53.032H90.5188V57.283ZM101.784 52.902C102.382 52.902 102.894 53.032 103.318 53.292C103.752 53.552 104.081 53.9203 104.306 54.397C104.54 54.865 104.657 55.4153 104.657 56.048V56.737H99.8863C99.9036 57.5257 100.103 58.128 100.484 58.544C100.874 58.9513 101.416 59.155 102.109 59.155C102.551 59.155 102.941 59.116 103.279 59.038C103.626 58.9513 103.981 58.83 104.345 58.674V59.675C103.99 59.831 103.639 59.9437 103.292 60.013C102.946 60.091 102.534 60.13 102.057 60.13C101.399 60.13 100.814 59.9957 100.302 59.727C99.7996 59.4583 99.4053 59.0597 99.1193 58.531C98.8419 57.9937 98.7033 57.3393 98.7033 56.568C98.7033 55.8053 98.8289 55.151 99.0803 54.605C99.3403 54.059 99.6999 53.6387 100.159 53.344C100.627 53.0493 101.169 52.902 101.784 52.902ZM101.771 53.838C101.225 53.838 100.792 54.0157 100.471 54.371C100.159 54.7177 99.9729 55.203 99.9123 55.827H103.461C103.453 55.2377 103.314 54.761 103.045 54.397C102.777 54.0243 102.352 53.838 101.771 53.838ZM111.316 53.032H112.538L114.046 56.997C114.176 57.3437 114.293 57.6773 114.397 57.998C114.501 58.31 114.579 58.609 114.631 58.895H114.683C114.735 58.6783 114.817 58.3967 114.93 58.05C115.043 57.6947 115.16 57.3393 115.281 56.984L116.698 53.032H117.933L114.93 60.962C114.687 61.6207 114.371 62.145 113.981 62.535C113.6 62.925 113.071 63.12 112.395 63.12C112.187 63.12 112.005 63.107 111.849 63.081C111.693 63.0637 111.559 63.042 111.446 63.016V62.106C111.541 62.1233 111.654 62.1407 111.784 62.158C111.923 62.1753 112.066 62.184 112.213 62.184C112.612 62.184 112.932 62.0713 113.175 61.846C113.426 61.6207 113.621 61.3217 113.76 60.949L114.124 60.026L111.316 53.032ZM123.13 60.13C122.515 60.13 121.964 60.0043 121.479 59.753C121.002 59.5017 120.625 59.1117 120.348 58.583C120.079 58.0543 119.945 57.3783 119.945 56.555C119.945 55.697 120.088 54.9993 120.374 54.462C120.66 53.9247 121.046 53.5303 121.531 53.279C122.025 53.0277 122.584 52.902 123.208 52.902C123.563 52.902 123.906 52.941 124.235 53.019C124.564 53.0883 124.833 53.175 125.041 53.279L124.69 54.228C124.482 54.15 124.239 54.0763 123.962 54.007C123.685 53.9377 123.425 53.903 123.182 53.903C121.813 53.903 121.128 54.7827 121.128 56.542C121.128 57.3827 121.293 58.0283 121.622 58.479C121.96 58.921 122.458 59.142 123.117 59.142C123.498 59.142 123.832 59.103 124.118 59.025C124.413 58.947 124.681 58.8517 124.924 58.739V59.753C124.69 59.8743 124.43 59.9653 124.144 60.026C123.867 60.0953 123.529 60.13 123.13 60.13ZM133.185 60H132.028V53.981H129.974C129.862 55.4457 129.706 56.6287 129.506 57.53C129.307 58.4227 129.043 59.0727 128.713 59.48C128.384 59.8873 127.968 60.091 127.465 60.091C127.353 60.091 127.24 60.0823 127.127 60.065C127.023 60.0563 126.937 60.0347 126.867 60V59.142C126.919 59.1593 126.976 59.1723 127.036 59.181C127.097 59.1897 127.158 59.194 127.218 59.194C127.686 59.194 128.059 58.6957 128.336 57.699C128.622 56.7023 128.839 55.1467 128.986 53.032H133.185V60ZM135.605 53.032H136.827L138.335 56.997C138.465 57.3437 138.582 57.6773 138.686 57.998C138.79 58.31 138.868 58.609 138.92 58.895H138.972C139.024 58.6783 139.106 58.3967 139.219 58.05C139.331 57.6947 139.448 57.3393 139.57 56.984L140.987 53.032H142.222L139.219 60.962C138.976 61.6207 138.66 62.145 138.27 62.535C137.888 62.925 137.36 63.12 136.684 63.12C136.476 63.12 136.294 63.107 136.138 63.081C135.982 63.0637 135.847 63.042 135.735 63.016V62.106C135.83 62.1233 135.943 62.1407 136.073 62.158C136.211 62.1753 136.354 62.184 136.502 62.184C136.9 62.184 137.221 62.0713 137.464 61.846C137.715 61.6207 137.91 61.3217 138.049 60.949L138.413 60.026L135.605 53.032ZM148.875 53.032V53.994H145.768V60H144.624V53.032H148.875ZM152.627 57.283C152.627 57.387 152.622 57.543 152.614 57.751C152.605 57.959 152.592 58.167 152.575 58.375C152.566 58.583 152.557 58.7477 152.549 58.869L156.28 53.032H157.684V60H156.618V55.892C156.618 55.7533 156.618 55.5713 156.618 55.346C156.626 55.1207 156.635 54.8997 156.644 54.683C156.652 54.4577 156.661 54.2887 156.67 54.176L152.965 60H151.548V53.032H152.627V57.283Z" fill="#414141"/>
<path d="M64 42C63.4477 42 63 42.4477 63 43C63 43.5523 63.4477 44 64 44V42ZM64 44H157V42H64V44Z" fill="#414141"/>
<g clip-path="url(#clip0)">
<path d="M2.09819 58.6399L20.0502 40.688C24.1902 44.4167 29.6488 46.7084 35.6459 46.7084C48.5232 46.7083 59 36.2316 59 23.3542C59 10.4768 48.5232 0 35.6458 0C22.7684 0 12.2916 10.4768 12.2916 23.3542C12.2916 29.3513 14.5833 34.8098 18.312 38.9499L0.360107 56.9018C0.120075 57.1418 0 57.4564 0 57.7709C0 58.0854 0.120075 58.3999 0.360107 58.64C0.84029 59.1201 1.61812 59.1201 2.09819 58.6399ZM14.75 23.3542C14.75 11.8332 24.1236 2.45841 35.6458 2.45841C47.168 2.45841 56.5417 11.8332 56.5417 23.3542C56.5417 34.8752 47.1681 44.25 35.6458 44.25C24.1235 44.25 14.75 34.8752 14.75 23.3542Z" fill="#414141"/>
<path d="M46.392 34.18C45.24 34.18 44.1 33.868 42.972 33.244C41.844 32.596 40.944 31.348 40.272 29.5L39.372 27.16H29.292L26.412 34H24.792L34.872 10.24H35.952L43.872 29.5C44.472 30.892 45.036 31.852 45.564 32.38C46.092 32.884 46.848 33.184 47.832 33.28V34C47.4 34.12 46.92 34.18 46.392 34.18ZM29.832 25.72H38.652L34.332 15.28L29.832 25.72Z" fill="#B49681"/>
</g>
<defs>
<clipPath id="clip0">
<rect width="59" height="59" fill="white" transform="translate(59) rotate(90)"/>
</clipPath>
</defs>
</svg>
