<svg width="156" height="64" viewBox="0 0 156 64" fill="none" xmlns="http://www.w3.org/2000/svg">
<path d="M64.072 32.88C64.072 32.64 64.152 32.44 64.312 32.28C64.472 32.12 64.672 32.04 64.912 32.04H65.872C66.608 30.44 67.128 28.656 67.432 26.688C67.752 24.704 67.912 22.488 67.912 20.04C67.912 19.224 67.8 18.624 67.576 18.24C67.352 17.84 66.904 17.64 66.232 17.64H65.872V17.16H77.872V32.04H79.192C79.432 32.04 79.632 32.12 79.792 32.28C79.952 32.44 80.032 32.64 80.032 32.88V37.32H78.952C78.76 35.72 78.432 34.6 77.968 33.96C77.504 33.32 76.832 33 75.952 33H68.152C67.272 33 66.6 33.32 66.136 33.96C65.672 34.6 65.344 35.72 65.152 37.32H64.072V32.88ZM75.712 32.04V18.12H69.472C69.472 21.432 69.32 24.176 69.016 26.352C68.728 28.528 68.24 30.424 67.552 32.04H75.712ZM86.5788 33.24C85.4908 33.24 84.5468 32.984 83.7467 32.472C82.9468 31.944 82.3388 31.232 81.9228 30.336C81.5068 29.44 81.2988 28.448 81.2988 27.36C81.2988 26.272 81.5068 25.28 81.9228 24.384C82.3388 23.488 82.9468 22.784 83.7467 22.272C84.5468 21.744 85.4908 21.48 86.5788 21.48C87.6668 21.48 88.6108 21.744 89.4108 22.272C90.2108 22.784 90.8188 23.488 91.2348 24.384C91.6508 25.28 91.8588 26.272 91.8588 27.36C91.8588 28.448 91.6508 29.44 91.2348 30.336C90.8188 31.232 90.2108 31.944 89.4108 32.472C88.6108 32.984 87.6668 33.24 86.5788 33.24ZM86.5788 32.28C87.1708 32.28 87.6908 32.064 88.1388 31.632C88.6028 31.2 88.9548 30.608 89.1948 29.856C89.4508 29.104 89.5788 28.272 89.5788 27.36C89.5788 26.448 89.4508 25.616 89.1948 24.864C88.9548 24.112 88.6028 23.52 88.1388 23.088C87.6908 22.656 87.1708 22.44 86.5788 22.44C85.9868 22.44 85.4588 22.656 84.9948 23.088C84.5468 23.52 84.1948 24.112 83.9388 24.864C83.6988 25.616 83.5788 26.448 83.5788 27.36C83.5788 28.272 83.6988 29.104 83.9388 29.856C84.1948 30.608 84.5468 31.2 84.9948 31.632C85.4588 32.064 85.9868 32.28 86.5788 32.28ZM94.9133 24.6C94.9133 23.784 94.8013 23.184 94.5773 22.8C94.3533 22.4 93.9053 22.2 93.2333 22.2H92.9933V21.72H98.8733C100.217 21.72 101.313 21.944 102.161 22.392C103.009 22.84 103.433 23.576 103.433 24.6C103.433 25.288 103.241 25.84 102.857 26.256C102.473 26.656 101.865 26.944 101.033 27.12C101.961 27.296 102.673 27.624 103.169 28.104C103.665 28.568 103.913 29.16 103.913 29.88C103.913 31.016 103.465 31.824 102.569 32.304C101.689 32.768 100.457 33 98.8733 33H94.9133V24.6ZM98.3933 26.64C99.2573 26.64 99.9293 26.464 100.409 26.112C100.905 25.76 101.153 25.256 101.153 24.6C101.153 23.944 100.921 23.44 100.457 23.088C99.9933 22.736 99.3853 22.56 98.6333 22.56C98.3933 22.56 98.1213 22.584 97.8173 22.632C97.5133 22.68 97.2653 22.736 97.0733 22.8V26.64H98.3933ZM98.6333 32.16C100.633 32.16 101.633 31.4 101.633 29.88C101.633 28.36 100.553 27.6 98.3933 27.6H97.0733V31.92C97.2653 31.984 97.5133 32.04 97.8173 32.088C98.1213 32.136 98.3933 32.16 98.6333 32.16ZM111.089 33.24C110.001 33.24 109.081 32.984 108.329 32.472C107.577 31.944 107.009 31.24 106.625 30.36C106.241 29.464 106.049 28.464 106.049 27.36C106.049 26.272 106.241 25.28 106.625 24.384C107.009 23.488 107.561 22.784 108.281 22.272C109.017 21.744 109.873 21.48 110.849 21.48C112.465 21.48 113.665 21.936 114.449 22.848C115.249 23.744 115.649 25.048 115.649 26.76L115.601 27.72H108.329C108.329 29.064 108.617 30.16 109.193 31.008C109.769 31.856 110.561 32.28 111.569 32.28C112.321 32.28 112.953 32.12 113.465 31.8C113.993 31.48 114.481 31 114.929 30.36L115.409 30.72C114.881 31.6 114.265 32.24 113.561 32.64C112.857 33.04 112.033 33.24 111.089 33.24ZM113.369 26.76C113.369 25.352 113.161 24.28 112.745 23.544C112.329 22.808 111.697 22.44 110.849 22.44C110.369 22.44 109.937 22.632 109.553 23.016C109.169 23.384 108.865 23.896 108.641 24.552C108.433 25.208 108.329 25.944 108.329 26.76H113.369ZM118.776 24.6C118.776 23.784 118.664 23.184 118.44 22.8C118.216 22.4 117.768 22.2 117.096 22.2H116.615V21.72H118.776C119.384 21.72 119.84 21.808 120.144 21.984C120.464 22.144 120.688 22.416 120.816 22.8H120.936C121.224 22.432 121.632 22.12 122.16 21.864C122.688 21.608 123.36 21.48 124.176 21.48C125.552 21.48 126.616 22.04 127.368 23.16C128.12 24.264 128.496 25.664 128.496 27.36C128.496 29.072 128.104 30.48 127.32 31.584C126.552 32.688 125.424 33.24 123.936 33.24C123.328 33.24 122.792 33.176 122.328 33.048C121.864 32.92 121.4 32.744 120.936 32.52V37.56H118.776V24.6ZM123.216 32.28C124.24 32.28 124.992 31.832 125.472 30.936C125.968 30.04 126.216 28.848 126.216 27.36C126.216 25.888 125.984 24.704 125.52 23.808C125.056 22.896 124.368 22.44 123.456 22.44C122.384 22.44 121.544 22.92 120.936 23.88V31.56C121.416 31.784 121.832 31.96 122.184 32.088C122.536 32.216 122.88 32.28 123.216 32.28ZM131.666 24.6C131.666 23.784 131.554 23.184 131.33 22.8C131.106 22.4 130.658 22.2 129.986 22.2H129.626V21.72H131.666C132.258 21.72 132.698 21.8 132.986 21.96C133.29 22.104 133.506 22.376 133.634 22.776C133.762 23.176 133.826 23.784 133.826 24.6V30.84L138.866 21.72H141.026V33H138.866V23.88L133.826 33H131.666V24.6ZM148.87 33.24C147.782 33.24 146.862 32.984 146.11 32.472C145.358 31.944 144.79 31.24 144.406 30.36C144.022 29.464 143.83 28.464 143.83 27.36C143.83 26.272 144.022 25.28 144.406 24.384C144.79 23.488 145.342 22.784 146.062 22.272C146.798 21.744 147.654 21.48 148.63 21.48C150.246 21.48 151.446 21.936 152.23 22.848C153.03 23.744 153.43 25.048 153.43 26.76L153.382 27.72H146.11C146.11 29.064 146.398 30.16 146.974 31.008C147.55 31.856 148.342 32.28 149.35 32.28C150.102 32.28 150.734 32.12 151.246 31.8C151.774 31.48 152.262 31 152.71 30.36L153.19 30.72C152.662 31.6 152.046 32.24 151.342 32.64C150.638 33.04 149.814 33.24 148.87 33.24ZM151.15 26.76C151.15 25.352 150.942 24.28 150.526 23.544C150.11 22.808 149.478 22.44 148.63 22.44C148.15 22.44 147.718 22.632 147.334 23.016C146.95 23.384 146.646 23.896 146.422 24.552C146.214 25.208 146.11 25.944 146.11 26.76H151.15Z" fill="#F4F4F4"/>
<path d="M21.111 60L19.876 56.802H16.028L14.78 60H14L17.653 50.679H18.342L21.904 60H21.111ZM18.407 52.772C18.355 52.6507 18.2857 52.46 18.199 52.2C18.1123 51.94 18.0387 51.7103 17.978 51.511C17.9087 51.745 17.835 51.9747 17.757 52.2C17.679 52.4253 17.614 52.6203 17.562 52.785L16.275 56.113H19.642L18.407 52.772ZM23.2222 53.084H24.0022L25.6532 57.374C25.7918 57.764 25.9132 58.1107 26.0172 58.414C26.1212 58.7087 26.2035 58.973 26.2642 59.207H26.3032C26.4332 58.7737 26.6368 58.1713 26.9142 57.4L28.5262 53.084H29.3192L26.1992 61.222C25.9652 61.8373 25.6878 62.3097 25.3672 62.639C25.0465 62.9683 24.6132 63.133 24.0672 63.133C23.9025 63.133 23.7508 63.1243 23.6122 63.107C23.4822 63.0897 23.3608 63.0593 23.2482 63.016V62.392C23.3522 62.4267 23.4648 62.4527 23.5862 62.47C23.7075 62.496 23.8375 62.509 23.9762 62.509C24.3402 62.509 24.6348 62.3963 24.8602 62.171C25.0942 61.9457 25.3022 61.599 25.4842 61.131L25.9262 59.974L23.2222 53.084ZM36.303 53.084V59.35H37.239V62.353H36.524V60H31.324V62.353H30.609V59.35H31.09C31.6707 58.544 32.1127 57.6037 32.416 56.529C32.7194 55.4543 32.8797 54.306 32.897 53.084H36.303ZM33.56 53.695C33.508 54.787 33.339 55.8227 33.053 56.802C32.7757 57.7727 32.39 58.622 31.896 59.35H35.575V53.695H33.56ZM40.6936 57.894C40.6936 58.0847 40.6849 58.3013 40.6676 58.544C40.6589 58.7867 40.6502 59.0033 40.6416 59.194L44.6846 53.084H45.5946V60H44.8926V55.177C44.8926 54.9863 44.8926 54.7697 44.8926 54.527C44.9012 54.2757 44.9142 54.059 44.9316 53.877L40.8756 60H39.9786V53.084H40.6936V57.894ZM53.6724 53.721H51.3584V60H50.6174V53.721H48.3164V53.084H53.6724V53.721ZM62.0364 56.529C62.0364 57.257 61.9151 57.8897 61.6724 58.427C61.4384 58.9643 61.0874 59.3847 60.6194 59.688C60.1601 59.9827 59.5968 60.13 58.9294 60.13C58.2881 60.13 57.7378 59.9827 57.2784 59.688C56.8191 59.3933 56.4638 58.9773 56.2124 58.44C55.9698 57.894 55.8484 57.257 55.8484 56.529C55.8484 55.411 56.1258 54.5357 56.6804 53.903C57.2351 53.2703 58.0021 52.954 58.9814 52.954C59.6401 52.954 60.1948 53.1057 60.6454 53.409C61.1048 53.7037 61.4514 54.1197 61.6854 54.657C61.9194 55.1943 62.0364 55.8183 62.0364 56.529ZM56.6154 56.529C56.6154 57.4217 56.8018 58.141 57.1744 58.687C57.5558 59.2243 58.1451 59.493 58.9424 59.493C59.7484 59.493 60.3378 59.22 60.7104 58.674C61.0831 58.128 61.2694 57.413 61.2694 56.529C61.2694 55.957 61.1914 55.45 61.0354 55.008C60.8794 54.566 60.6324 54.2193 60.2944 53.968C59.9564 53.7167 59.5144 53.591 58.9684 53.591C58.1884 53.591 57.5991 53.851 57.2004 54.371C56.8104 54.891 56.6154 55.6103 56.6154 56.529ZM68.3264 52.954C69.2104 52.954 69.8994 53.253 70.3934 53.851C70.8874 54.449 71.1344 55.333 71.1344 56.503C71.1344 57.673 70.8744 58.57 70.3544 59.194C69.8431 59.818 69.1411 60.13 68.2484 60.13C67.6417 60.13 67.1521 60 66.7794 59.74C66.4067 59.48 66.1337 59.168 65.9604 58.804H65.9084C65.9257 59.0207 65.9387 59.259 65.9474 59.519C65.9561 59.7703 65.9604 60.0043 65.9604 60.221V63.068H65.2194V53.084H65.8304L65.9214 54.371H65.9604C66.1337 53.9983 66.4111 53.669 66.7924 53.383C67.1737 53.097 67.6851 52.954 68.3264 52.954ZM68.2224 53.591C67.4511 53.591 66.8834 53.8337 66.5194 54.319C66.1554 54.8043 65.9691 55.502 65.9604 56.412V56.542C65.9604 57.53 66.1381 58.271 66.4934 58.765C66.8574 59.2503 67.4164 59.493 68.1704 59.493C68.8811 59.493 69.4227 59.2287 69.7954 58.7C70.1767 58.1627 70.3674 57.426 70.3674 56.49C70.3674 55.5627 70.1854 54.8477 69.8214 54.345C69.4661 53.8423 68.9331 53.591 68.2224 53.591ZM77.0706 60.13C76.0566 60.13 75.2723 59.818 74.7176 59.194C74.1716 58.57 73.8986 57.699 73.8986 56.581C73.8986 55.801 74.0373 55.1423 74.3146 54.605C74.5919 54.0677 74.9776 53.6603 75.4716 53.383C75.9743 53.097 76.5593 52.954 77.2266 52.954C77.5559 52.954 77.8679 52.9843 78.1626 53.045C78.4573 53.1057 78.7173 53.188 78.9426 53.292L78.7346 53.929C78.5006 53.8337 78.2493 53.76 77.9806 53.708C77.7119 53.6473 77.4563 53.617 77.2136 53.617C76.3903 53.617 75.7576 53.8813 75.3156 54.41C74.8823 54.9387 74.6656 55.658 74.6656 56.568C74.6656 57.4347 74.8606 58.1367 75.2506 58.674C75.6406 59.2027 76.2473 59.467 77.0706 59.467C77.4086 59.467 77.7293 59.4323 78.0326 59.363C78.3359 59.2937 78.6089 59.207 78.8516 59.103V59.766C78.6263 59.8787 78.3663 59.9653 78.0716 60.026C77.7856 60.0953 77.4519 60.13 77.0706 60.13ZM85.6192 53.084H86.4642L83.3702 56.438L86.6592 60H85.7622L82.5252 56.49V60H81.7842V53.084H82.5252V56.438L85.6192 53.084ZM89.9438 57.894C89.9438 58.0847 89.9351 58.3013 89.9178 58.544C89.9091 58.7867 89.9004 59.0033 89.8918 59.194L93.9348 53.084H94.8448V60H94.1428V55.177C94.1428 54.9863 94.1428 54.7697 94.1428 54.527C94.1514 54.2757 94.1644 54.059 94.1818 53.877L90.1258 60H89.2288V53.084H89.9438V57.894ZM101.077 52.954C101.666 52.954 102.156 53.0927 102.546 53.37C102.944 53.6387 103.243 54.0113 103.443 54.488C103.651 54.9647 103.755 55.5107 103.755 56.126V56.633H98.8146C98.8146 57.5517 99.027 58.258 99.4516 58.752C99.885 59.2373 100.5 59.48 101.298 59.48C101.722 59.48 102.095 59.4453 102.416 59.376C102.736 59.298 103.087 59.1767 103.469 59.012V59.688C103.122 59.844 102.78 59.9567 102.442 60.026C102.104 60.0953 101.714 60.13 101.272 60.13C100.232 60.13 99.4343 59.8137 98.8796 59.181C98.325 58.5483 98.0476 57.686 98.0476 56.594C98.0476 55.892 98.1646 55.268 98.3986 54.722C98.6413 54.176 98.988 53.747 99.4386 53.435C99.8893 53.1143 100.435 52.954 101.077 52.954ZM101.064 53.578C100.431 53.578 99.9153 53.7903 99.5166 54.215C99.1266 54.6397 98.9013 55.242 98.8406 56.022H102.988C102.988 55.294 102.827 54.7047 102.507 54.254C102.195 53.8033 101.714 53.578 101.064 53.578ZM110.469 53.084H111.249L112.9 57.374C113.039 57.764 113.16 58.1107 113.264 58.414C113.368 58.7087 113.451 58.973 113.511 59.207H113.55C113.68 58.7737 113.884 58.1713 114.161 57.4L115.773 53.084H116.566L113.446 61.222C113.212 61.8373 112.935 62.3097 112.614 62.639C112.294 62.9683 111.86 63.133 111.314 63.133C111.15 63.133 110.998 63.1243 110.859 63.107C110.729 63.0897 110.608 63.0593 110.495 63.016V62.392C110.599 62.4267 110.712 62.4527 110.833 62.47C110.955 62.496 111.085 62.509 111.223 62.509C111.587 62.509 111.882 62.3963 112.107 62.171C112.341 61.9457 112.549 61.599 112.731 61.131L113.173 59.974L110.469 53.084ZM121.763 60.13C120.749 60.13 119.965 59.818 119.41 59.194C118.864 58.57 118.591 57.699 118.591 56.581C118.591 55.801 118.73 55.1423 119.007 54.605C119.285 54.0677 119.67 53.6603 120.164 53.383C120.667 53.097 121.252 52.954 121.919 52.954C122.249 52.954 122.561 52.9843 122.855 53.045C123.15 53.1057 123.41 53.188 123.635 53.292L123.427 53.929C123.193 53.8337 122.942 53.76 122.673 53.708C122.405 53.6473 122.149 53.617 121.906 53.617C121.083 53.617 120.45 53.8813 120.008 54.41C119.575 54.9387 119.358 55.658 119.358 56.568C119.358 57.4347 119.553 58.1367 119.943 58.674C120.333 59.2027 120.94 59.467 121.763 59.467C122.101 59.467 122.422 59.4323 122.725 59.363C123.029 59.2937 123.302 59.207 123.544 59.103V59.766C123.319 59.8787 123.059 59.9653 122.764 60.026C122.478 60.0953 122.145 60.13 121.763 60.13ZM131.365 60H130.611V53.721H128.271C128.167 55.177 128.028 56.373 127.855 57.309C127.681 58.245 127.439 58.9383 127.127 59.389C126.823 59.8397 126.42 60.065 125.918 60.065C125.701 60.065 125.532 60.0433 125.411 60V59.415C125.497 59.441 125.627 59.454 125.801 59.454C126.329 59.454 126.728 58.9383 126.997 57.907C127.265 56.8757 127.473 55.268 127.621 53.084H131.365V60ZM133.819 53.084H134.599L136.25 57.374C136.388 57.764 136.51 58.1107 136.614 58.414C136.718 58.7087 136.8 58.973 136.861 59.207H136.9C137.03 58.7737 137.233 58.1713 137.511 57.4L139.123 53.084H139.916L136.796 61.222C136.562 61.8373 136.284 62.3097 135.964 62.639C135.643 62.9683 135.21 63.133 134.664 63.133C134.499 63.133 134.347 63.1243 134.209 63.107C134.079 63.0897 133.957 63.0593 133.845 63.016V62.392C133.949 62.4267 134.061 62.4527 134.183 62.47C134.304 62.496 134.434 62.509 134.573 62.509C134.937 62.509 135.231 62.3963 135.457 62.171C135.691 61.9457 135.899 61.599 136.081 61.131L136.523 59.974L133.819 53.084ZM146.438 53.084V53.721H143.084V60H142.343V53.084H146.438ZM149.868 57.894C149.868 58.0847 149.86 58.3013 149.842 58.544C149.834 58.7867 149.825 59.0033 149.816 59.194L153.859 53.084H154.769V60H154.067V55.177C154.067 54.9863 154.067 54.7697 154.067 54.527C154.076 54.2757 154.089 54.059 154.106 53.877L150.05 60H149.153V53.084H149.868V57.894Z" fill="#F4F4F4"/>
<path d="M64 42C63.4477 42 63 42.4477 63 43C63 43.5523 63.4477 44 64 44V42ZM64 44H155V42H64V44Z" fill="#F4F4F4"/>
<g clip-path="url(#clip0)">
<path d="M2.09819 58.6399L20.0502 40.688C24.1902 44.4167 29.6488 46.7084 35.6459 46.7084C48.5232 46.7083 59 36.2316 59 23.3542C59 10.4768 48.5232 0 35.6458 0C22.7684 0 12.2916 10.4768 12.2916 23.3542C12.2916 29.3513 14.5833 34.8098 18.312 38.9499L0.360107 56.9018C0.120075 57.1418 0 57.4564 0 57.7709C0 58.0854 0.120075 58.3999 0.360107 58.64C0.84029 59.1201 1.61812 59.1201 2.09819 58.6399ZM14.75 23.3542C14.75 11.8332 24.1236 2.45841 35.6458 2.45841C47.168 2.45841 56.5417 11.8332 56.5417 23.3542C56.5417 34.8752 47.1681 44.25 35.6458 44.25C24.1235 44.25 14.75 34.8752 14.75 23.3542Z" fill="#F4F4F4"/>
<path d="M46.392 34.18C45.24 34.18 44.1 33.868 42.972 33.244C41.844 32.596 40.944 31.348 40.272 29.5L39.372 27.16H29.292L26.412 34H24.792L34.872 10.24H35.952L43.872 29.5C44.472 30.892 45.036 31.852 45.564 32.38C46.092 32.884 46.848 33.184 47.832 33.28V34C47.4 34.12 46.92 34.18 46.392 34.18ZM29.832 25.72H38.652L34.332 15.28L29.832 25.72Z" fill="#EBC9B1"/>
</g>
<defs>
<clipPath id="clip0">
<rect width="59" height="59" fill="white" transform="translate(59) rotate(90)"/>
</clipPath>
</defs>
</svg>
