<svg width="21" height="21" viewBox="0 0 21 21" fill="none" xmlns="http://www.w3.org/2000/svg">
<path d="M1.2503 8.32566C3.6458 13.543 7.9083 17.6911 13.2077 19.9399L14.0572 20.3184C16.0008 21.1844 18.2854 20.5265 19.4708 18.7596L20.5809 17.105C20.9419 16.567 20.832 15.8424 20.3278 15.4356L16.5629 12.3984C16.01 11.9522 15.1969 12.0562 14.7738 12.627L13.6092 14.1986C10.6207 12.7244 8.1943 10.2981 6.72017 7.3096L8.29167 6.14495C8.86255 5.72192 8.96642 4.90877 8.5203 4.3558L5.48303 0.590873C5.07634 0.0867725 4.35196 -0.0231898 3.814 0.337523L2.14795 1.45465C0.370025 2.64677 -0.2842 4.95034 0.601713 6.89902L1.24933 8.32355L1.2503 8.32566Z" fill="#C9A88F"/>
</svg>
